<svg width="40" height="26" viewBox="0 0 40 26" fill="none" xmlns="http://www.w3.org/2000/svg">
<path d="M33.9355 24.3096C31.7568 24.2591 30.0317 22.4614 30.0824 20.2944C30.1332 18.1274 31.9406 16.4116 34.1194 16.4621C36.2982 16.5126 38.0233 18.3103 37.9725 20.4773C37.9217 22.6443 36.1143 24.3601 33.9355 24.3096Z" stroke="white" stroke-width="2" stroke-miterlimit="10"/>
<path d="M8.63056 24.31C6.45118 24.31 4.68445 22.5528 4.68445 20.3852C4.68445 18.2176 6.45118 16.4604 8.63056 16.4604C10.8099 16.4604 12.5767 18.2176 12.5767 20.3852C12.5767 22.5528 10.8099 24.31 8.63056 24.31Z" stroke="white" stroke-width="2" stroke-miterlimit="10"/>
<path d="M26.7438 20.3013C26.7461 19.3708 26.9329 18.4499 27.2938 17.5914C27.6546 16.7329 28.1823 15.9537 28.8466 15.2985C31.6498 12.5219 36.1969 12.5219 39.0001 15.2985" stroke="white" stroke-width="2" stroke-miterlimit="10" stroke-linecap="round" stroke-linejoin="round"/>
<path d="M1.2087 20.3011C1.2087 16.3734 4.40969 13.1904 8.35868 13.1904C12.3077 13.1904 15.5079 16.3741 15.5079 20.3018" stroke="white" stroke-width="2" stroke-miterlimit="10" stroke-linecap="round" stroke-linejoin="round"/>
<path d="M16.53 5.06387H3.25192V9.1277H16.53V5.06387Z" stroke="white" stroke-width="2" stroke-miterlimit="10" stroke-linecap="round" stroke-linejoin="round"/>
<path d="M34.9149 13.1908L28.7861 1H24.7002" stroke="white" stroke-width="2" stroke-miterlimit="10" stroke-linecap="round" stroke-linejoin="round"/>
<path d="M26.7438 20.3853H15.5079" stroke="white" stroke-width="2" stroke-miterlimit="10" stroke-linecap="round" stroke-linejoin="round"/>
<path d="M16.5297 9.12695C16.5297 9.12695 20.6156 24.3652 28.786 9.12695" stroke="white" stroke-width="2" stroke-miterlimit="10" stroke-linecap="round" stroke-linejoin="round"/>
<path d="M3.25159 9.12695C3.25159 9.12695 0.186797 14.2064 1.20863 20.3014" stroke="white" stroke-width="2" stroke-miterlimit="10" stroke-linecap="round" stroke-linejoin="round"/>
</svg>
